<svg width="31" height="28" viewBox="0 0 31 28" fill="none" xmlns="http://www.w3.org/2000/svg">
<path d="M27.364 3.77698C26.6798 3.04292 25.8675 2.46061 24.9735 2.06332C24.0794 1.66603 23.1211 1.46155 22.1533 1.46155C21.1855 1.46155 20.2272 1.66603 19.3332 2.06332C18.4391 2.46061 17.6268 3.04292 16.9426 3.77698L15.5227 5.29969L14.1028 3.77698C12.7209 2.29492 10.8465 1.46232 8.89212 1.46232C6.93773 1.46232 5.06338 2.29492 3.68142 3.77698C2.29945 5.25903 1.52307 7.26912 1.52307 9.36506C1.52307 11.461 2.29945 13.4711 3.68142 14.9531L15.5227 26.4615L27.364 14.9531C28.0485 14.2194 28.5915 13.3483 28.9619 12.3895C29.3324 11.4306 29.5231 10.4029 29.5231 9.36506C29.5231 8.32719 29.3324 7.29948 28.9619 6.34066C28.5915 5.38184 28.0485 4.51069 27.364 3.77698Z" stroke="#542D0C" stroke-width="2" stroke-linecap="round" stroke-linejoin="round"/>
</svg>
