<svg width="31" height="33" viewBox="0 0 31 33" fill="none" xmlns="http://www.w3.org/2000/svg">
<path d="M22.5231 12.6538L8.52307 4.89904M1.94307 9.00803L15.5231 16.5536L29.1031 9.00803M15.5231 31.6V16.5387M29.5231 22.5154V10.562C29.5225 10.0379 29.3785 9.52323 29.1055 9.06953C28.8324 8.61583 28.44 8.23907 27.9675 7.97704L17.0786 2.00034C16.6057 1.73806 16.0692 1.59998 15.5231 1.59998C14.977 1.59998 14.4405 1.73806 13.9675 2.00034L3.07863 7.97704C2.60615 8.23907 2.21371 8.61583 1.94068 9.06953C1.66765 9.52323 1.52363 10.0379 1.52307 10.562V22.5154C1.52363 23.0394 1.66765 23.5541 1.94068 24.0078C2.21371 24.4615 2.60615 24.8383 3.07863 25.1003L13.9675 31.077C14.4405 31.3393 14.977 31.4774 15.5231 31.4774C16.0692 31.4774 16.6057 31.3393 17.0786 31.077L27.9675 25.1003C28.44 24.8383 28.8324 24.4615 29.1055 24.0078C29.3785 23.5541 29.5225 23.0394 29.5231 22.5154Z" stroke="#542D0C" stroke-width="2" stroke-linecap="round" stroke-linejoin="round"/>
</svg>
