<svg width="29" height="28" viewBox="0 0 29 28" fill="none" xmlns="http://www.w3.org/2000/svg">
<path d="M13.3139 0.876831C16.659 0.876831 19.3872 3.56333 19.3872 6.87083V13.3373H11.1616C10.572 13.3373 10.1059 13.7963 10.1059 14.3768C10.1059 14.9438 10.572 15.4163 11.1616 15.4163H19.3872V21.8693C19.3872 25.1768 16.659 27.8768 13.2865 27.8768H6.61004C3.25124 27.8768 0.523071 25.1903 0.523071 21.8828V6.88433C0.523071 3.56333 3.26495 0.876831 6.62375 0.876831H13.3139ZM22.8099 9.7196C23.2142 9.3011 23.8744 9.3011 24.2786 9.7061L28.2132 13.6346C28.4153 13.8371 28.5231 14.0936 28.5231 14.3771C28.5231 14.6471 28.4153 14.9171 28.2132 15.1061L24.2786 19.0346C24.0765 19.2371 23.807 19.3451 23.551 19.3451C23.2815 19.3451 23.0121 19.2371 22.8099 19.0346C22.4057 18.6296 22.4057 17.9681 22.8099 17.5631L24.9658 15.4166H19.3875V13.3376H24.9658L22.8099 11.1911C22.4057 10.7861 22.4057 10.1246 22.8099 9.7196Z" fill="white"/>
</svg>
