<svg width="31" height="28" viewBox="0 0 31 28" fill="none" xmlns="http://www.w3.org/2000/svg">
<path d="M1.52307 6.32306L6.18974 1.32306H24.8564L29.5231 6.32306M1.52307 6.32306V23.8231C1.52307 24.4861 1.85085 25.122 2.43429 25.5908C3.01774 26.0597 3.80906 26.3231 4.63418 26.3231H26.412C27.2371 26.3231 28.0284 26.0597 28.6118 25.5908C29.1953 25.122 29.5231 24.4861 29.5231 23.8231V6.32306M1.52307 6.32306H29.5231M21.7453 11.3231C21.7453 12.6491 21.0897 13.9209 19.9228 14.8586C18.756 15.7963 17.1733 16.3231 15.5231 16.3231C13.8728 16.3231 12.2902 15.7963 11.1233 14.8586C9.9564 13.9209 9.30085 12.6491 9.30085 11.3231" stroke="#542D0C" stroke-width="2" stroke-linecap="round" stroke-linejoin="round"/>
</svg>
