<svg width="45" height="50" viewBox="0 0 45 50" fill="none" xmlns="http://www.w3.org/2000/svg">
<path d="M1 10.6H5.77778M5.77778 10.6H44M5.77778 10.6V44.2C5.77778 45.473 6.28115 46.6939 7.17716 47.5941C8.07316 48.4943 9.28841 49 10.5556 49H34.4444C35.7116 49 36.9268 48.4943 37.8228 47.5941C38.7188 46.6939 39.2222 45.473 39.2222 44.2V10.6M12.9444 10.6V5.8C12.9444 4.52696 13.4478 3.30606 14.3438 2.40589C15.2398 1.50571 16.4551 1 17.7222 1H27.2778C28.5449 1 29.7602 1.50571 30.6562 2.40589C31.5522 3.30606 32.0556 4.52696 32.0556 5.8V10.6M17.7222 22.6V37M27.2778 22.6V37" stroke="#542D0C" stroke-width="2" stroke-linecap="round" stroke-linejoin="round"/>
</svg>
